<svg id="레이어_1" data-name="레이어 1" xmlns="http://www.w3.org/2000/svg" viewBox="0 0 149.46 141.73"><defs><style>.cls-1{fill:#fff;}.cls-2{fill:#dcdddd;}</style></defs><title>logo_white</title><g id="_그룹_" data-name="&lt;그룹&gt;"><path id="_패스_" data-name="&lt;패스&gt;" class="cls-1" d="M431.92,227.13H355.33a8.57,8.57,0,0,0-8.57,8.57v48.57a17.1,17.1,0,0,1,28.35,0V261.9a8.57,8.57,0,0,1,8.57-8.57h40.49c30.77,0,40.89,18.26,40.89,46.85,0,31.36-17.27,42.48-35.33,42.48h-11.2a17,17,0,0,1,0,26.2h13.38c43.27,0,64.32-30.57,64.32-71.66C496.23,250.36,468.64,227.13,431.92,227.13Z" transform="translate(-346.77 -227.13)"/><path id="_패스_2" data-name="&lt;패스&gt;" class="cls-2" d="M417.63,355.42a13.29,13.29,0,0,0-13.39-12.76H383.65a8.54,8.54,0,0,1-8.54-8.54V298.28A14.35,14.35,0,0,0,362,283.87,14.17,14.17,0,0,0,346.77,298v62.31a8.56,8.56,0,0,0,8.56,8.56h49.21A13.1,13.1,0,0,0,417.63,355.42Z" transform="translate(-346.77 -227.13)"/></g></svg>