<svg id="레이어_1" data-name="레이어 1" xmlns="http://www.w3.org/2000/svg" viewBox="0 0 424.13 55.12"><defs><style>.cls-1{fill:#fff;}</style></defs><title>sejong_white</title><path class="cls-1" d="M-387.79,269.77l.18,7.5h-.68a7.68,7.68,0,0,0-2.36-4.54,5.94,5.94,0,0,0-4.07-1.71,3.82,3.82,0,0,0-2.68.9,2.75,2.75,0,0,0-1,2.08,2.53,2.53,0,0,0,.35,1.33,5.65,5.65,0,0,0,1.54,1.54,34.65,34.65,0,0,0,3.6,1.94,16,16,0,0,1,5.32,3.67,6.19,6.19,0,0,1,1.36,3.95,6.38,6.38,0,0,1-2.2,4.85,7.89,7.89,0,0,1-5.58,2,9,9,0,0,1-2-.22,15.07,15.07,0,0,1-2.37-.81,3.6,3.6,0,0,0-1.31-.33,1.62,1.62,0,0,0-.91.33,2.33,2.33,0,0,0-.78,1H-402V284.8h.61a9.74,9.74,0,0,0,2.81,5.46,6.58,6.58,0,0,0,4.49,1.88,4.21,4.21,0,0,0,3-1,3.11,3.11,0,0,0,1.1-2.36,3.09,3.09,0,0,0-.42-1.54,4.9,4.9,0,0,0-1.28-1.42,19.41,19.41,0,0,0-3.05-1.75,26.29,26.29,0,0,1-4.41-2.57,7.89,7.89,0,0,1-2.07-2.37,5.88,5.88,0,0,1-.72-2.89,6.11,6.11,0,0,1,2-4.58,6.9,6.9,0,0,1,5-1.89,8.52,8.52,0,0,1,2.12.27,10.64,10.64,0,0,1,1.9.74,4.49,4.49,0,0,0,1.57.54.89.89,0,0,0,.68-.27,3.06,3.06,0,0,0,.46-1.28Z" transform="translate(470.6 -252.8)"/><path class="cls-1" d="M-375.61,271.58v9.15h.45a3.55,3.55,0,0,0,3.1-1.34,8.28,8.28,0,0,0,1.23-4h.63V287.2h-.63a8.8,8.8,0,0,0-.84-3.15,3.62,3.62,0,0,0-1.48-1.65,5.69,5.69,0,0,0-2.46-.42v6.33a9.12,9.12,0,0,0,.16,2.27,1.37,1.37,0,0,0,.59.68,2.76,2.76,0,0,0,1.39.27h1.34a8.07,8.07,0,0,0,5-1.46,8.15,8.15,0,0,0,2.73-4.45h.61l-1,7.15h-19.44v-.61h.75a3.11,3.11,0,0,0,1.58-.35,1.51,1.51,0,0,0,.66-.8,6.83,6.83,0,0,0,.18-2.09V274.13a11.62,11.62,0,0,0-.08-1.87,1.6,1.6,0,0,0-.61-.9,2.86,2.86,0,0,0-1.73-.46h-.75v-.61h18.82v6.65H-366a8.13,8.13,0,0,0-1.35-3.5,5,5,0,0,0-2.46-1.56,13.34,13.34,0,0,0-3.48-.3Z" transform="translate(470.6 -252.8)"/><path class="cls-1" d="M-357.38,270.9v-.61h12v.61h-.73a3.16,3.16,0,0,0-1.59.35,1.63,1.63,0,0,0-.66.8,6.86,6.86,0,0,0-.18,2.09v11a12.48,12.48,0,0,1-.65,4.7,5.44,5.44,0,0,1-2.3,2.46,7.61,7.61,0,0,1-4,1,6.82,6.82,0,0,1-4.58-1.49,4.31,4.31,0,0,1-1.75-3.3,2.57,2.57,0,0,1,.71-1.88,2.35,2.35,0,0,1,1.74-.72,2.39,2.39,0,0,1,1.7.65,2.1,2.1,0,0,1,.69,1.59,2.57,2.57,0,0,1-.12.81,6.73,6.73,0,0,1-.52.84,2.2,2.2,0,0,0-.46,1,.91.91,0,0,0,.43.75,2.69,2.69,0,0,0,1.64.46,1.85,1.85,0,0,0,1.18-.37,2,2,0,0,0,.65-1.14,26.44,26.44,0,0,0,.19-4.29v-12a7.07,7.07,0,0,0-.19-2.16,1.72,1.72,0,0,0-.75-.76,3,3,0,0,0-1.5-.32Z" transform="translate(470.6 -252.8)"/><path class="cls-1" d="M-332.1,270a11.22,11.22,0,0,1,8.73,3.14,11.27,11.27,0,0,1,3.36,8.34,12,12,0,0,1-2.5,7.53,11.14,11.14,0,0,1-9.37,4.31q-6.07,0-9.39-4.11a11.91,11.91,0,0,1-2.62-7.71,11.21,11.21,0,0,1,3.41-8.35A10.85,10.85,0,0,1-332.1,270m.2,1.06a5.07,5.07,0,0,0-4.69,3.15,16.85,16.85,0,0,0-1.31,7.43q0,5.76,2,8.51a4.61,4.61,0,0,0,3.95,1.92,4.74,4.74,0,0,0,2.85-.83,6.83,6.83,0,0,0,2.27-3.39,18.86,18.86,0,0,0,.81-6.08,20.21,20.21,0,0,0-.83-6.68,6.51,6.51,0,0,0-2.12-3.12,5,5,0,0,0-3-.91" transform="translate(470.6 -252.8)"/><path class="cls-1" d="M-310.35,270.28l11.09,13.95v-9.67a4.58,4.58,0,0,0-.58-2.74,3.21,3.21,0,0,0-2.67-.93v-.61h7.43v.61a5.68,5.68,0,0,0-1.92.47,1.9,1.9,0,0,0-.76.95,6.47,6.47,0,0,0-.27,2.25v18.72h-.56l-15.21-18.72v14.29a3.15,3.15,0,0,0,.89,2.62,3.26,3.26,0,0,0,2,.68h.53v.61h-8v-.61a3.61,3.61,0,0,0,2.59-.76,3.57,3.57,0,0,0,.73-2.54V273l-.48-.6a4.33,4.33,0,0,0-1.26-1.18,3.79,3.79,0,0,0-1.57-.32v-.61Z" transform="translate(470.6 -252.8)"/><path class="cls-1" d="M-270.84,269.77v7.93h-.61a10.1,10.1,0,0,0-3.33-4.94,7.84,7.84,0,0,0-4.86-1.69,6.27,6.27,0,0,0-4.2,1.42,7.68,7.68,0,0,0-2.37,4,19.6,19.6,0,0,0-.7,5.21,19.06,19.06,0,0,0,.76,5.67,6.46,6.46,0,0,0,2.46,3.58,7.06,7.06,0,0,0,4,1.14,8.27,8.27,0,0,0,1.66-.17,12,12,0,0,0,1.75-.5v-4.68a5,5,0,0,0-.18-1.72,1.69,1.69,0,0,0-.75-.7,2.83,2.83,0,0,0-1.38-.32h-.58v-.61h10.93V284a4.78,4.78,0,0,0-1.73.34,1.7,1.7,0,0,0-.75.85,4.68,4.68,0,0,0-.15,1.54v4.68a22.14,22.14,0,0,1-4.49,1.45,23.47,23.47,0,0,1-4.83.49,14,14,0,0,1-5.32-.87,13.23,13.23,0,0,1-3.73-2.29,10.78,10.78,0,0,1-2.53-3.19,11.15,11.15,0,0,1-1.16-5.12,11.55,11.55,0,0,1,3.57-8.57,12.29,12.29,0,0,1,9-3.5,15.62,15.62,0,0,1,3,.27,15.41,15.41,0,0,1,2.36.75,9.91,9.91,0,0,0,1.93.62,1.29,1.29,0,0,0,.86-.34,3,3,0,0,0,.73-1.28Z" transform="translate(470.6 -252.8)"/><path class="cls-1" d="M-258.57,270.28H-247v.61h-.58a4.07,4.07,0,0,0-1.8.27,1.55,1.55,0,0,0-.7.76,8.09,8.09,0,0,0-.21,2.4v11a11.22,11.22,0,0,0,.46,4,3.81,3.81,0,0,0,1.5,1.63,4.93,4.93,0,0,0,2.64.65,5.65,5.65,0,0,0,3.11-.82,5,5,0,0,0,1.92-2.26,13.72,13.72,0,0,0,.64-5v-9.17a5.28,5.28,0,0,0-.32-2.16,1.88,1.88,0,0,0-.8-.9,4.73,4.73,0,0,0-2.11-.38v-.61h7.78v.61h-.46a3,3,0,0,0-1.58.38,2.15,2.15,0,0,0-.91,1.14,5.73,5.73,0,0,0-.22,1.91v8.54a22.27,22.27,0,0,1-.52,5.72,6.39,6.39,0,0,1-2.55,3.23,9.18,9.18,0,0,1-5.52,1.48,10.51,10.51,0,0,1-4.51-.78,6.64,6.64,0,0,1-3.07-2.72,9.41,9.41,0,0,1-.9-4.46v-11a7.79,7.79,0,0,0-.22-2.41,1.61,1.61,0,0,0-.75-.75,4.53,4.53,0,0,0-2-.27Z" transform="translate(470.6 -252.8)"/><path class="cls-1" d="M-226.38,270.28l11.09,13.95v-9.67a4.56,4.56,0,0,0-.58-2.74,3.21,3.21,0,0,0-2.67-.93v-.61h7.43v.61a5.68,5.68,0,0,0-1.92.47,1.89,1.89,0,0,0-.76.95,6.44,6.44,0,0,0-.27,2.25v18.72h-.56l-15.21-18.72v14.29a3.16,3.16,0,0,0,.89,2.62,3.25,3.25,0,0,0,2,.68h.53v.61h-8v-.61a3.62,3.62,0,0,0,2.59-.76,3.57,3.57,0,0,0,.73-2.54V273l-.48-.6a4.33,4.33,0,0,0-1.26-1.18,3.78,3.78,0,0,0-1.58-.32v-.61Z" transform="translate(470.6 -252.8)"/><path class="cls-1" d="M-197.87,292.16v.61h-11.76v-.61h.75a3.11,3.11,0,0,0,1.58-.35,1.51,1.51,0,0,0,.66-.8,6.82,6.82,0,0,0,.18-2.09V274.13a7.38,7.38,0,0,0-.18-2.16,1.67,1.67,0,0,0-.74-.76,3,3,0,0,0-1.5-.32h-.75v-.61h11.76v.61h-.75a3.11,3.11,0,0,0-1.58.35,1.59,1.59,0,0,0-.68.8,6.83,6.83,0,0,0-.18,2.09v14.79a7.1,7.1,0,0,0,.19,2.16,1.7,1.7,0,0,0,.75.75,3,3,0,0,0,1.5.32Z" transform="translate(470.6 -252.8)"/><path class="cls-1" d="M-172.91,270.28v.61a3.65,3.65,0,0,0-2.19,1.31,20.44,20.44,0,0,0-2.07,3.9l-7.74,17.18h-.55l-7.71-17.88a22.69,22.69,0,0,0-1.87-3.8,2.67,2.67,0,0,0-1.78-.71v-.61H-186v.61h-.37a3.78,3.78,0,0,0-2,.37.81.81,0,0,0-.38.73,2.35,2.35,0,0,0,.13.7q.13.41.9,2.18l4.79,11.19,4.44-10a26,26,0,0,0,1-2.42,3.72,3.72,0,0,0,.18-1,1.51,1.51,0,0,0-.27-.88,1.65,1.65,0,0,0-.78-.58,5.26,5.26,0,0,0-1.89-.28v-.61Z" transform="translate(470.6 -252.8)"/><path class="cls-1" d="M-163.31,271.58v9.15h.45a3.55,3.55,0,0,0,3.1-1.34,8.29,8.29,0,0,0,1.23-4h.63V287.2h-.63a8.79,8.79,0,0,0-.84-3.15,3.6,3.6,0,0,0-1.48-1.65,5.68,5.68,0,0,0-2.46-.42v6.33a9.18,9.18,0,0,0,.16,2.27,1.38,1.38,0,0,0,.59.68,2.77,2.77,0,0,0,1.39.27h1.34a8.07,8.07,0,0,0,5-1.46,8.12,8.12,0,0,0,2.73-4.45h.62l-1,7.15h-19.44v-.61h.75a3.1,3.1,0,0,0,1.57-.35,1.5,1.5,0,0,0,.66-.8,6.86,6.86,0,0,0,.18-2.09V274.13a11.51,11.51,0,0,0-.08-1.87,1.59,1.59,0,0,0-.61-.9,2.86,2.86,0,0,0-1.72-.46h-.75v-.61h18.82v6.65h-.63a8.12,8.12,0,0,0-1.35-3.5,5,5,0,0,0-2.46-1.56,13.34,13.34,0,0,0-3.48-.3Z" transform="translate(470.6 -252.8)"/><path class="cls-1" d="M-140.89,282.52v6.3a6.93,6.93,0,0,0,.22,2.3,1.63,1.63,0,0,0,.79.75,5.27,5.27,0,0,0,2.11.28v.61h-11.51v-.61a5.14,5.14,0,0,0,2.11-.29,1.7,1.7,0,0,0,.78-.75,6.9,6.9,0,0,0,.22-2.29V274.23a7,7,0,0,0-.22-2.3,1.64,1.64,0,0,0-.79-.75,5.32,5.32,0,0,0-2.11-.28v-.61h10.45a22.76,22.76,0,0,1,6,.56,6,6,0,0,1,3.09,2.08,5.59,5.59,0,0,1,1.19,3.56,5.31,5.31,0,0,1-1.79,4.11,7.41,7.41,0,0,1-3.2,1.54l5.41,7.61a11.41,11.41,0,0,0,1.51,1.84,2.81,2.81,0,0,0,1.58.56v.61h-7.08l-7.25-10.25Zm0-11v9.85h.95a10.58,10.58,0,0,0,3.45-.42,3.43,3.43,0,0,0,1.8-1.53,5.57,5.57,0,0,0,.66-2.88,5.25,5.25,0,0,0-1.2-3.8,5.24,5.24,0,0,0-3.87-1.23Z" transform="translate(470.6 -252.8)"/><path class="cls-1" d="M-109.43,269.77l.18,7.5h-.68a7.68,7.68,0,0,0-2.36-4.54,5.93,5.93,0,0,0-4.07-1.71,3.81,3.81,0,0,0-2.68.9,2.75,2.75,0,0,0-1,2.08,2.52,2.52,0,0,0,.35,1.33,5.6,5.6,0,0,0,1.54,1.54,34.8,34.8,0,0,0,3.6,1.94,16,16,0,0,1,5.32,3.67,6.2,6.2,0,0,1,1.36,3.95,6.37,6.37,0,0,1-2.2,4.85,7.89,7.89,0,0,1-5.58,2,9,9,0,0,1-2-.22,15.08,15.08,0,0,1-2.37-.81,3.6,3.6,0,0,0-1.31-.33,1.62,1.62,0,0,0-.91.33,2.31,2.31,0,0,0-.78,1h-.62V284.8h.62a9.73,9.73,0,0,0,2.81,5.46,6.59,6.59,0,0,0,4.49,1.88,4.22,4.22,0,0,0,3-1,3.11,3.11,0,0,0,1.1-2.36,3.09,3.09,0,0,0-.42-1.54,4.87,4.87,0,0,0-1.28-1.42,19.34,19.34,0,0,0-3.05-1.75,26.27,26.27,0,0,1-4.41-2.57,7.91,7.91,0,0,1-2.07-2.37,5.89,5.89,0,0,1-.72-2.89,6.11,6.11,0,0,1,2-4.58,6.91,6.91,0,0,1,5-1.89,8.49,8.49,0,0,1,2.12.27,10.59,10.59,0,0,1,1.9.74,4.5,4.5,0,0,0,1.57.54.89.89,0,0,0,.68-.27,3.05,3.05,0,0,0,.46-1.28Z" transform="translate(470.6 -252.8)"/><path class="cls-1" d="M-94.06,292.16v.61h-11.76v-.61h.75a3.11,3.11,0,0,0,1.58-.35,1.51,1.51,0,0,0,.66-.8,6.87,6.87,0,0,0,.18-2.09V274.13a7.43,7.43,0,0,0-.18-2.16,1.66,1.66,0,0,0-.74-.76,3,3,0,0,0-1.5-.32h-.75v-.61h11.76v.61h-.75a3.11,3.11,0,0,0-1.57.35,1.6,1.6,0,0,0-.68.8,6.93,6.93,0,0,0-.18,2.09v14.79a7.07,7.07,0,0,0,.19,2.16,1.7,1.7,0,0,0,.75.75,3,3,0,0,0,1.5.32Z" transform="translate(470.6 -252.8)"/><path class="cls-1" d="M-71.85,270.28v6.09h-.59a9.65,9.65,0,0,0-1.18-3,4.54,4.54,0,0,0-1.78-1.47,5.68,5.68,0,0,0-2.21-.3h-1.68v17.35a7.13,7.13,0,0,0,.19,2.16,1.71,1.71,0,0,0,.75.75,3,3,0,0,0,1.52.32h.75v.61H-87.85v-.61h.75a3.11,3.11,0,0,0,1.58-.35,1.57,1.57,0,0,0,.68-.8,6.77,6.77,0,0,0,.18-2.09V271.58H-86.3a4.73,4.73,0,0,0-3.3,1,6.36,6.36,0,0,0-1.82,3.83H-92v-6.09Z" transform="translate(470.6 -252.8)"/><path class="cls-1" d="M-46.47,270.28v.61a3.33,3.33,0,0,0-1.71.65,17.2,17.2,0,0,0-2.62,3.8l-4.88,8.14v5.44a7.39,7.39,0,0,0,.18,2.16,1.68,1.68,0,0,0,.72.75,2.77,2.77,0,0,0,1.43.32h1.26v.61H-64.7v-.61h1.18a3,3,0,0,0,1.58-.35,1.59,1.59,0,0,0,.68-.8,6.92,6.92,0,0,0,.18-2.09v-4.51l-5.29-9.64a14.24,14.24,0,0,0-2.22-3.36,2.79,2.79,0,0,0-1.73-.52v-.61h10.78v.61H-60a2.45,2.45,0,0,0-1.37.28.77.77,0,0,0-.39.6,10,10,0,0,0,1.33,3l4.07,7.45,4-6.78a9,9,0,0,0,1.51-3.3.88.88,0,0,0-.43-.75,4.1,4.1,0,0,0-2.08-.5v-.61Z" transform="translate(470.6 -252.8)"/><path class="cls-1" d="M-443,307.91a27.59,27.59,0,0,0,27.56-27.56A27.59,27.59,0,0,0-443,252.8a27.59,27.59,0,0,0-27.56,27.56A27.59,27.59,0,0,0-443,307.91Zm-26.4-27.56A26.43,26.43,0,0,1-443,254a26.43,26.43,0,0,1,26.4,26.4,26.43,26.43,0,0,1-26.4,26.4A26.43,26.43,0,0,1-469.45,280.36Z" transform="translate(470.6 -252.8)"/><path class="cls-1" d="M-424,277.61A19.19,19.19,0,0,0-443,261.17a19.19,19.19,0,0,0-18.93,16.41l1,.15A18.14,18.14,0,0,1-443,262.21a18.14,18.14,0,0,1,17.89,15.54Z" transform="translate(470.6 -252.8)"/><path class="cls-1" d="M-448,293.09v-.22l.5-.05.11,0,.06-.14a8.66,8.66,0,0,0,0-.91v-.62c0-.21,0-.45,0-.7v-.33l0,0-.11,0c-.34.15-.56.24-.65.3l0,0,0-.17,0-.16v0l.74-.22.86-.32.06,0s0,.11,0,.25,0,.22,0,.26,0,.53,0,1.16v.39c0,.37,0,.64,0,.78a1.17,1.17,0,0,0,0,.39l0,.05a1.25,1.25,0,0,0,.37,0h.17v.22l-.92,0Z" transform="translate(470.6 -252.8)"/><path class="cls-1" d="M-443.92,291.11l-.17.19-.24.07-.26-.09-.19-.25a1.29,1.29,0,0,1-.07-.47.86.86,0,0,1,.13-.55.4.4,0,0,1,.33-.17.41.41,0,0,1,.39.25,1.45,1.45,0,0,1,.13.68A1,1,0,0,1-443.92,291.11Zm-.47,1.92a1.86,1.86,0,0,0,.6-.41,2,2,0,0,0,.44-.65,2.39,2.39,0,0,0,.16-.93,2.22,2.22,0,0,0-.12-.79,1.14,1.14,0,0,0-.38-.5,1,1,0,0,0-.64-.19,1.07,1.07,0,0,0-.83.34,1.3,1.3,0,0,0-.33.93,1.09,1.09,0,0,0,.23.75.75.75,0,0,0,.57.26l.37-.06.09-.06.34-.3a3.68,3.68,0,0,1-.1.6,1.85,1.85,0,0,1-.22.46,1.12,1.12,0,0,1-.37.33,1,1,0,0,1-.48.13l-.19,0-.06.1.2.16A1.66,1.66,0,0,0-444.39,293Z" transform="translate(470.6 -252.8)"/><path class="cls-1" d="M-442,290.85c.11-.19.28-.48.53-.88v1.76h-.94C-442.26,291.34-442.11,291-442,290.85Zm.77,2.22h.87v-.22l-.33,0-.11,0,0-.09a4.74,4.74,0,0,1,0-.53h.49l0-.19,0-.24,0,0h-.47v-.58c0-.55,0-.91,0-1.06s0-.43,0-.55l0,0-.34.07-.31.06c-.07.09-.2.27-.37.54s-.37.64-.61,1.1a6.35,6.35,0,0,0-.33.71l0,.22h1.29c0,.27,0,.42,0,.45l0,.16-.08,0a4,4,0,0,1-.48,0v.22Z" transform="translate(470.6 -252.8)"/><path class="cls-1" d="M-439.17,290.21a.55.55,0,0,1,.17-.29l.24-.08.22.07.16.21a1.62,1.62,0,0,1,.1.44,8.69,8.69,0,0,1,.07,1.08,2.48,2.48,0,0,1-.14,1.05.41.41,0,0,1-.35.21l-.3-.15a1.32,1.32,0,0,1-.19-.62,8.78,8.78,0,0,1-.06-1.06A3.26,3.26,0,0,1-439.17,290.21Zm-.67,2a1.44,1.44,0,0,0,.2.55.89.89,0,0,0,.36.34,1.16,1.16,0,0,0,.52.11,1.1,1.1,0,0,0,.43-.07l.32-.2a1.35,1.35,0,0,0,.25-.36,1.76,1.76,0,0,0,.16-.55,6.57,6.57,0,0,0,0-.75,3.3,3.3,0,0,0-.11-1,1.08,1.08,0,0,0-.35-.54,1.13,1.13,0,0,0-.67-.18,1.22,1.22,0,0,0-.4.06l-.33.2a1.14,1.14,0,0,0-.25.33,1.28,1.28,0,0,0-.15.45,4.79,4.79,0,0,0-.07.82A5.76,5.76,0,0,0-439.84,292.17Z" transform="translate(470.6 -252.8)"/><path class="cls-1" d="M-450.49,257l.09.06.08.17c.07.22.13.46.19.73l.17.74.13.55a5.09,5.09,0,0,0,.15.56l.19.33a1.19,1.19,0,0,0,.35.26,1.27,1.27,0,0,0,.51.13,2.73,2.73,0,0,0,.85-.08,2.67,2.67,0,0,0,.64-.23,1.78,1.78,0,0,0,.44-.35,1.34,1.34,0,0,0,.23-.44,1.28,1.28,0,0,0,0-.51,4.11,4.11,0,0,0-.09-.55l-.16-.69c0-.19-.1-.47-.17-.82a3.69,3.69,0,0,1-.09-.6l0-.1a.76.76,0,0,1,.33-.12l-.05-.24-.64.17-.08,0-.63.12.06.24a1.05,1.05,0,0,1,.43,0l.08.06a1.78,1.78,0,0,1,.14.43l.22.93.13.59a2.22,2.22,0,0,1,.1.86.82.82,0,0,1-.26.44,1.33,1.33,0,0,1-.61.28,1.36,1.36,0,0,1-.6,0,.72.72,0,0,1-.4-.19.89.89,0,0,1-.24-.41c0-.08-.08-.3-.16-.65l-.08-.34-.16-.67a4.75,4.75,0,0,1-.14-.8l0-.12a1,1,0,0,1,.39-.14l-.06-.25-.11,0-.39.1-.39.1-.95.2.06.24Z" transform="translate(470.6 -252.8)"/><path class="cls-1" d="M-444.16,259.73v-.24h-.06l-.28,0-.1,0,0,0a2.22,2.22,0,0,1,0-.42c0-.32,0-.64,0-1v-1.46q1.74,2.12,2.69,3.18l.5.07,0,0c0-.27,0-1.07,0-2.37,0-.17,0-.43,0-.77a3.86,3.86,0,0,1,.06-.68l0,0a1.34,1.34,0,0,1,.43-.05v-.25l-.75,0-.66,0v.25a1.13,1.13,0,0,1,.46.06l.06.14c0,.19,0,.8,0,1.86v.68c-.27-.27-.61-.67-1-1.17-.58-.68-1.06-1.29-1.47-1.82h-.7l-.55,0v.25l.37,0,.1,0,0,.1a1.59,1.59,0,0,1,0,.28v1.79c0,.26,0,.47,0,.64s0,.46,0,.54l0,.11-.05,0-.4,0v.25l.77,0Z" transform="translate(470.6 -252.8)"/><path class="cls-1" d="M-462.23,265.14l.1,0,.1,0,.22.17.65.56.71.62c.2.17.35.31.47.43l.38.39.06.1v.07a2.5,2.5,0,0,1-.24.32l.19.17.5-.6.42-.47-.18-.15,0,0-.2.2-.09,0h-.07a2.26,2.26,0,0,1-.34-.24l-.73-.61-1.1-1c1.83.07,3.22.09,4.17.08l.39-.33v-.05c-.23-.16-.83-.67-1.81-1.53l-.57-.52a3.21,3.21,0,0,1-.47-.49v0a1.29,1.29,0,0,1,.24-.36l-.19-.17-.48.58c-.13.15-.28.31-.45.48l.19.16c.18-.19.29-.29.35-.3l.14.05c.15.11.63.51,1.42,1.2l.51.45c-.39,0-.91,0-1.55,0-.89,0-1.68-.05-2.33-.1l-.17.21-.28.33c-.07.09-.2.22-.38.4l.19.17Z" transform="translate(470.6 -252.8)"/><path class="cls-1" d="M-438.79,260.17l0-.25-.33-.07-.08,0,0-.07a2.27,2.27,0,0,1,0-.47l.07-.52.17-1.13s0-.29.12-.75l0-.28.06-.17,0,0,.08,0,.34,0,0-.25-1-.13-.81-.14,0,.25.36.08.06,0,0,.06a3.65,3.65,0,0,1,0,.45c0,.12,0,.36-.1.73l-.18,1.18a5.87,5.87,0,0,1-.12.62c0,.16-.05.32-.06.35l0,0-.09,0-.33,0,0,.24.81.11Z" transform="translate(470.6 -252.8)"/><path class="cls-1" d="M-422.87,267.58c-.08.06-.29.19-.62.39l-1,.63c-.17.1-.35.21-.55.31l-.3.18h0l-.07-.06-.2-.27-.21.12c.14.2.29.43.45.69l.51.86.21-.14a3.2,3.2,0,0,1-.16-.29v-.09l0-.07a2.74,2.74,0,0,1,.37-.28l.45-.28,1-.61.64-.39.24-.14.17-.08h.06l.07,0,.2.29.21-.13-.54-.83c-.16-.27-.3-.5-.42-.71l-.21.14a2.46,2.46,0,0,1,.17.32v.08l0,.06A4,4,0,0,1-422.87,267.58Z" transform="translate(470.6 -252.8)"/><path class="cls-1" d="M-436.95,257c0,.16.06.66.13,1.48l.08,1.06c0,.39.06.8.08,1.23l.42.14c.22-.28.6-.75,1.16-1.39l.66-.76.34-.39a2.74,2.74,0,0,1,.52-.52.86.86,0,0,1,.32.05l.08-.24-.59-.18-.69-.25-.08.24.3.12.09,0,0,0v.07l0,.07c0,.07-.14.2-.29.39l-.37.46-1.11,1.3-.13-1.91V258s0-.12,0-.31a2.24,2.24,0,0,1,0-.58l0-.06h.09a1.56,1.56,0,0,1,.34.08l.09-.24-1-.3-.79-.28-.07.23a.85.85,0,0,1,.32.16A.69.69,0,0,1-436.95,257Z" transform="translate(470.6 -252.8)"/><path class="cls-1" d="M-432.5,259.49l-.65,1.12-.38.61c-.09.15-.17.26-.22.32h-.33l-.08.13.83.47.81.48.4.24a4,4,0,0,0,.46.24h0a8.71,8.71,0,0,1,.53-.78l-.2-.12a3,3,0,0,1-.36.4l-.06,0a.78.78,0,0,1-.31-.11l-.51-.27L-433,262l.17-.31.61-1.06.41.22a3.71,3.71,0,0,1,.42.28l.08.13a1,1,0,0,1-.17.38l.21.13.31-.56.33-.54-.2-.12a1.39,1.39,0,0,1-.22.29l-.07,0-.17-.07-.42-.23-.34-.21.3-.52a6.48,6.48,0,0,1,.45-.69c.16.08.32.15.46.25a4.25,4.25,0,0,1,.46.31l.18.15v.07a3.62,3.62,0,0,1-.19.37l.19.11.23-.34.26-.33v0l-.07-.07-.36-.22-.51-.28-.76-.43-.33-.19-.56-.36-.13.22a1.51,1.51,0,0,1,.33.25l0,.07a1.73,1.73,0,0,1-.16.36C-432.38,259.29-432.47,259.46-432.5,259.49Z" transform="translate(470.6 -252.8)"/><path class="cls-1" d="M-467.23,276.35l.05,0a1.45,1.45,0,0,1,.39.05l.55.11,1.26.29.7.19.38.12.09.31.16,0c.12-.58.19-.9.2-.94s.11-.47.22-.91l.11-.45a5.05,5.05,0,0,0,.1-.52l0,0a7.77,7.77,0,0,1-.9-.27l-.06.23a3,3,0,0,1,.49.22l0,0a.94.94,0,0,1,0,.33c0,.17-.07.36-.11.56s-.1.38-.14.53l-.35-.08-1.19-.27c0-.12,0-.28.09-.45a4.15,4.15,0,0,1,.15-.49l.1-.1a1.13,1.13,0,0,1,.41,0l.06-.25-.62-.13-.61-.16-.06.23a1.29,1.29,0,0,1,.35.13l0,.05,0,.18c-.06.26-.09.42-.1.47s-.07.27-.11.39l-.57-.13a8.08,8.08,0,0,1-.8-.22c0-.18.06-.35.1-.51a4.33,4.33,0,0,1,.16-.54l.1-.21.06,0,.41.07.05-.22-.4-.12-.39-.14h0l0,.08c-.06.2-.09.34-.11.41l-.12.57c-.07.31-.13.6-.19.86l-.09.37-.17.65.24.05A1.87,1.87,0,0,1-467.23,276.35Z" transform="translate(470.6 -252.8)"/><path class="cls-1" d="M-429.09,261.7l-.68.82-.55.64-.24.23-.07.05h-.06a1.65,1.65,0,0,1-.32-.22l-.16.19.65.52c.26.21.51.43.76.65l.16-.19-.25-.23,0-.07V264l.11-.18c0-.05.17-.22.41-.54l.57-.71.7-.83c.16-.18.27-.29.31-.35l.23.16a1.13,1.13,0,0,1,.31.31.66.66,0,0,1,.09.38.72.72,0,0,1-.18.42,1,1,0,0,1-.4.29.6.6,0,0,1-.41,0,1,1,0,0,1-.45-.28l-.08.05,0,.26c0,.21,0,.48-.09.82l-.17,1.17-.05.17.36.28.49.41.15-.19-.13-.13,0-.11c0-.05,0-.19,0-.43,0,0,0-.13,0-.34l.08-.8v-.06l0-.2,0-.31a1.4,1.4,0,0,0,.8.07,1,1,0,0,0,.57-.35.79.79,0,0,0,.2-.48.71.71,0,0,0-.12-.45,2.65,2.65,0,0,0-.48-.48l-.46-.36-.41-.32c-.18-.15-.32-.26-.41-.35l-.35-.3-.15.18a2,2,0,0,1,.29.32v.06a1.67,1.67,0,0,1-.25.35Z" transform="translate(470.6 -252.8)"/><path class="cls-1" d="M-427,267a1.23,1.23,0,0,1-.24-.54.86.86,0,0,1,0-.49,4.16,4.16,0,0,1,.39-.35l-.15-.19a3.82,3.82,0,0,1-.85.54,2.77,2.77,0,0,0,.19.63,2.9,2.9,0,0,0,.34.54,2.1,2.1,0,0,0,.62.58,1.43,1.43,0,0,0,.47.18,1.43,1.43,0,0,0,.5,0,1.35,1.35,0,0,0,.62-.28l.27-.28.14-.28v-.3a1.51,1.51,0,0,0-.11-.39L-425,266l-.21-.42a1.18,1.18,0,0,1-.1-.34l0-.25.21-.24a.65.65,0,0,1,.5-.11.88.88,0,0,1,.53.37,1.31,1.31,0,0,1,.22.45.72.72,0,0,1,0,.38,3.83,3.83,0,0,1-.36.32l.15.19.4-.27.33-.17,0-.06a2,2,0,0,0-.18-.5,3,3,0,0,0-.32-.5,2.47,2.47,0,0,0-.41-.43,1.43,1.43,0,0,0-.47-.26.94.94,0,0,0-.55,0,1.21,1.21,0,0,0-.56.25l-.3.32a.93.93,0,0,0-.13.4,1,1,0,0,0,.07.45q.06.16.29.65a2.22,2.22,0,0,1,.18.5l0,.29-.2.24-.37.17a.69.69,0,0,1-.41-.1A1.18,1.18,0,0,1-427,267Z" transform="translate(470.6 -252.8)"/><path class="cls-1" d="M-466.17,280.68a1,1,0,0,0,.34-.22,1,1,0,0,0,.23-.4c0-.11.09-.34.17-.69a2.37,2.37,0,0,1,.18-.5l.22-.21.31-.07a.85.85,0,0,1,.39.11.66.66,0,0,1,.26.32,1.11,1.11,0,0,1,.09.49,1.23,1.23,0,0,1-.15.58.93.93,0,0,1-.33.37,3.37,3.37,0,0,1-.52,0v.24a4.48,4.48,0,0,1,1,.12,3.11,3.11,0,0,0,.25-.61,2.57,2.57,0,0,0,.08-.64,2.14,2.14,0,0,0-.12-.84,1.48,1.48,0,0,0-.25-.43,1.44,1.44,0,0,0-.38-.33,1.47,1.47,0,0,0-.65-.17,1.18,1.18,0,0,0-.38,0l-.29.13-.2.23a1.59,1.59,0,0,0-.16.38l-.08.39-.09.47a1.72,1.72,0,0,1-.14.33l-.19.16-.31.06a.64.64,0,0,1-.46-.23.89.89,0,0,1-.18-.62,1.2,1.2,0,0,1,.11-.49.69.69,0,0,1,.23-.31l.48,0v-.24a3.75,3.75,0,0,1-.48,0l-.37-.07-.07,0a1.8,1.8,0,0,0-.17.5,3.06,3.06,0,0,0-.07.59,2.83,2.83,0,0,0,.05.58,1.42,1.42,0,0,0,.2.51,1.11,1.11,0,0,0,.42.37,1.36,1.36,0,0,0,.59.15A1.46,1.46,0,0,0-466.17,280.68Z" transform="translate(470.6 -252.8)"/><path class="cls-1" d="M-418.33,279a1.53,1.53,0,0,0-.23-.5,1.05,1.05,0,0,0-.44-.34,1.22,1.22,0,0,0-.61-.11,1.21,1.21,0,0,0-.43.09,1,1,0,0,0-.34.25.94.94,0,0,0-.2.41c0,.11-.07.34-.14.69a2.34,2.34,0,0,1-.14.52l-.2.22-.31.08a.78.78,0,0,1-.4-.08.7.7,0,0,1-.28-.31,1.3,1.3,0,0,1-.11-.49,1.32,1.32,0,0,1,.11-.59,1,1,0,0,1,.31-.39,3.54,3.54,0,0,1,.51-.05v-.24a4.38,4.38,0,0,1-1-.06,2.81,2.81,0,0,0-.21.62,2.74,2.74,0,0,0,0,.65,2.21,2.21,0,0,0,.17.82,1.41,1.41,0,0,0,.28.42,1.49,1.49,0,0,0,.4.31,1.37,1.37,0,0,0,.66.13,1.35,1.35,0,0,0,.38-.07l.28-.15.19-.24a1.55,1.55,0,0,0,.13-.38c0-.06,0-.2.05-.4s.05-.35.07-.47a1.16,1.16,0,0,1,.12-.33l.18-.18.31-.08a.62.62,0,0,1,.47.2.87.87,0,0,1,.22.61,1.22,1.22,0,0,1-.08.5.8.8,0,0,1-.21.32l-.48,0v.25h.48l.38,0,.07,0a1.84,1.84,0,0,0,.14-.5,3.5,3.5,0,0,0,0-.6A2.5,2.5,0,0,0-418.33,279Z" transform="translate(470.6 -252.8)"/><path class="cls-1" d="M-421.83,269.59a2.37,2.37,0,0,1,.44-.14h.11l.06.09c.07.14.15.31.23.49l.17.38s-.29.14-.73.32l-1.6.69a6.3,6.3,0,0,1-.71.28l-.14,0a1.29,1.29,0,0,1-.21-.36l-.22.09c.16.32.29.61.4.86s.22.53.35.88l.22-.1a1.57,1.57,0,0,1-.12-.4l.07-.12a4.41,4.41,0,0,1,.68-.32l1.6-.69.73-.31.16.38a4.9,4.9,0,0,1,.21.53l0,.1-.1.09-.38.21.1.22.59-.24.3-.09,0,0-.13-.24c-.07-.15-.2-.45-.39-.89l-.46-1.08c-.19-.44-.31-.73-.37-.89l-.1-.27h0l-.24.13-.61.27Z" transform="translate(470.6 -252.8)"/><path class="cls-1" d="M-421.7,274.11l-.76-.11-.48-.08-.1,0-.06-.07a1.67,1.67,0,0,1-.09-.26l-.23.06.17.64.14.66.24-.06a1.24,1.24,0,0,1-.05-.42l.09-.07a1.94,1.94,0,0,1,.51,0l.38,0,.35,1.45-.56.39-.21.11-.09,0a2.39,2.39,0,0,1-.13-.37l-.23.05.25,1,.18.79.23-.05v-.36l.07-.07.23-.17.35-.27,2.64-2-.09-.4-.7-.09Zm.39,1.54-.15-.57c0-.22-.1-.43-.13-.6l1.59.23Z" transform="translate(470.6 -252.8)"/><circle class="cls-1" cx="50.81" cy="31.41" r="1.08"/><path class="cls-1" d="M-419.26,287.74l0,0h-.06l-.33-.1-.31-.12-.72-.29-.58-.24-.26-.11-.17-.13a.51.51,0,0,1,.06-.29v0l-.18-.07-.23.62-.15.34.23.23.48.52.46.5.5.57-1.61.11-.37,0-.48,0a4.37,4.37,0,0,1-.16.43c0,.11-.12.3-.24.58l.17.07.13-.23,0-.06h0a1.88,1.88,0,0,1,.4.12l.74.29.66.27.5.23.07.05v.05a1.47,1.47,0,0,1-.07.3l.17.07c0-.13.1-.29.19-.5s.13-.32.2-.47l-.17-.07a1.81,1.81,0,0,1-.12.25l-.06,0h-.08l-.4-.15-.6-.23-1-.4,1.32-.1.92,0,.56,0,.06-.14-.29-.3-.45-.48-.38-.42-.78-.86,1.5.6a3.12,3.12,0,0,1,.5.22l.08.09a1.18,1.18,0,0,1-.09.3l.17.07.25-.64.27-.65-.17-.07Z" transform="translate(470.6 -252.8)"/><path class="cls-1" d="M-421.77,291.92l-.34-.25-.45-.27-.54-.36a2.58,2.58,0,0,1-.37-.27l0-.07.11-.24-.16-.1-.25.43,0,.05-.26.4.16.1a.74.74,0,0,1,.21-.25l.07,0a1.73,1.73,0,0,1,.31.16l.61.38.39.24a1.67,1.67,0,0,1,.51.41.63.63,0,0,1,.1.37,1,1,0,0,1-.18.48,1,1,0,0,1-.3.34l-.32.12-.35-.09-.43-.26-.22-.14-.44-.27a3.88,3.88,0,0,1-.51-.35l0-.08a.67.67,0,0,1,.13-.29l-.16-.09,0,.07-.15.26-.16.26-.4.61.16.1.17-.23h.08l.14,0,.49.28.48.31.37.23.37.22.27.07.33,0,.34-.2a2.22,2.22,0,0,0,.42-.5,1.75,1.75,0,0,0,.21-.47,1,1,0,0,0,0-.43.84.84,0,0,0-.1-.35Z" transform="translate(470.6 -252.8)"/><path class="cls-1" d="M-423.25,295.26l-.06,0h-.06l-.25-.16-.33-.24-.72-.55-.46-.37-.17-.14-.1-.1v0l0-.07.15-.22-.16-.12c-.14.2-.29.41-.46.62s-.28.36-.4.51l.15.12.19-.21.05,0h.05l.29.19.46.35.74.57c.12.09.25.19.38.32l.16.14,0,0,0,.07-.16.21.16.12c.11-.15.23-.33.38-.52l.48-.61-.15-.12Z" transform="translate(470.6 -252.8)"/><path class="cls-1" d="M-426.71,299l-.07,0-.06,0-.21-.21-.27-.31-.58-.69-.38-.45-.14-.17-.08-.13v0l0-.06.2-.18-.13-.16c-.17.17-.37.34-.58.52l-.5.41.13.15.23-.17h.06l0,0a2.32,2.32,0,0,1,.25.25l.37.43.61.71.31.39.12.18v0l0,.06-.2.18.13.16.48-.43.61-.49-.12-.15Z" transform="translate(470.6 -252.8)"/><path class="cls-1" d="M-451.1,300.69l-.6-.25-.07.19.26.12,0,0v.05a2.17,2.17,0,0,1-.1.34l-.2.54-.33.87a4.6,4.6,0,0,1-.19.46l-.09.19,0,0h-.06l-.26-.08-.07.18.61.22c.26.09.5.19.72.29l.07-.19-.24-.11-.05-.05v-.05a1.18,1.18,0,0,1,.09-.29l.14-.38.32-.84.22-.55.09-.21.07-.13,0,0h.07l.25.08.07-.18Z" transform="translate(470.6 -252.8)"/><path class="cls-1" d="M-455.54,298.34l-.53-.37-.11.16.23.17,0,0v.05a2.2,2.2,0,0,1-.17.31c0,.08-.14.24-.31.49l-.51.79-.29.41-.13.16,0,0-.07,0-.23-.12-.11.17c.17.1.35.2.55.34l.64.43.11-.16-.22-.16,0-.06v-.05l.15-.26.21-.35.49-.76.33-.49.13-.18.1-.11,0,0h.06l.23.13.11-.16Z" transform="translate(470.6 -252.8)"/><path class="cls-1" d="M-424.92,297.21H-425a4.34,4.34,0,0,1-.43-.39l-1-.93-.44-.43.22-.23.32-.3.06,0,.09,0,.26.22.13-.14-.35-.35-.15-.18h0l-.14.16-.52.54-.63.66-.52.52-.17.16v0l.17.13.38.36.13-.14-.23-.27,0-.07,0-.07.28-.33.23-.23.45.42,1,.94a3.41,3.41,0,0,1,.4.42l0,.11-.2.25.13.13.5-.54.53-.51-.13-.13Z" transform="translate(470.6 -252.8)"/><path class="cls-1" d="M-447.87,302l.07,0v.1l-.06.32.18.06.15-.48.09-.22,0,0-.2,0-.73-.2-.87-.26-.71-.22-.21-.08,0,0,0,.21s-.06.2-.14.5l.18,0,.13-.32,0-.06h.09l.41.11.31.09s-.06.24-.17.59l-.38,1.29a3.43,3.43,0,0,1-.18.55l-.1.07a1.4,1.4,0,0,1-.31-.06l0,.17.71.18c.2.06.43.13.7.23l.05-.18a1.25,1.25,0,0,1-.3-.12l0-.1a4,4,0,0,1,.14-.56l.38-1.29c.1-.34.16-.54.18-.59l.3.09Z" transform="translate(470.6 -252.8)"/><path class="cls-1" d="M-458.41,298.94l.85-1,.39-.47.25.2a4.25,4.25,0,0,1,.33.29l0,.06,0,.09-.19.28.15.12.31-.38.17-.17v0l-.17-.12-.59-.47-.7-.57-.57-.47-.16-.15h0l-.11.18-.32.41.14.12.25-.25.07,0,.08,0,.34.26.25.2-.38.48-.85,1a2.93,2.93,0,0,1-.39.44l-.11,0a1.1,1.1,0,0,1-.27-.18l-.12.15c.22.16.42.3.58.44l.56.47.11-.14a1.08,1.08,0,0,1-.23-.23v-.11A3.74,3.74,0,0,1-458.41,298.94Z" transform="translate(470.6 -252.8)"/><path class="cls-1" d="M-429.48,298.89l-.07-.41a2.31,2.31,0,0,1-.07-.56l.19-.18-.11-.16-.4.27-.48.31.11.16.21-.12.07,0h0l0,0,0,0c0,.06.05.19.1.37l.1.45.26,1.3-1.23-.84,0,0-.2-.13a1.79,1.79,0,0,1-.36-.28l0-.06,0-.06.22-.17-.11-.16-.67.44-.56.35.11.16.26-.12.22.09c.11.06.44.28,1,.64l.68.46.79.55.29-.19c-.06-.27-.16-.73-.28-1.38Z" transform="translate(470.6 -252.8)"/><path class="cls-1" d="M-452.14,300.51a.66.66,0,0,1,.25.07l.09-.17-.44-.21-.5-.27-.09.17.21.13.08,0v.1l0,0-.28.27-.34.3-1,.88.13-1.49v0s0-.1,0-.25a1.78,1.78,0,0,1,.07-.45l0,0h.08l.25.1.09-.17-.72-.34-.58-.32-.09.17.23.16a.59.59,0,0,1,0,.24c0,.13,0,.51-.08,1.16l-.06.83c0,.3-.05.62-.08,1l.3.15c.2-.18.55-.49,1.06-.92l.6-.5.31-.26A1.8,1.8,0,0,1-452.14,300.51Z" transform="translate(470.6 -252.8)"/><path class="cls-1" d="M-430.87,301.93H-431l-.3-.15-.23-.13-.54-.32,0,0-.13-.08-.21-.13a1.14,1.14,0,0,0,.31-.54.84.84,0,0,0-.07-.52.64.64,0,0,0-.28-.29l-.36,0a1.88,1.88,0,0,0-.5.18l-.41.22-.36.19-.39.19-.32.15.08.16a1.52,1.52,0,0,1,.32-.11l0,0a1.57,1.57,0,0,1,.17.29l.22.42.37.74.27.6.1.25V303l0,0a1.67,1.67,0,0,1-.26.16l.09.18.57-.31.71-.33-.09-.18-.24.11h-.11l-.1-.14s-.11-.19-.24-.46-.23-.43-.32-.64-.19-.38-.36-.76l-.16-.33.19-.11a.88.88,0,0,1,.31-.12l.3.06.24.26.08.38-.11.3a.82.82,0,0,1-.34.23v.08l.19.07c.15.07.33.19.55.33l.78.5.11.09.31-.16.45-.21-.08-.17Z" transform="translate(470.6 -252.8)"/><path class="cls-1" d="M-464.28,292.71s0-.09.13-.24l.3-.55,0,0,.07-.14.12-.2a1.15,1.15,0,0,0,.56.29.81.81,0,0,0,.51-.09.61.61,0,0,0,.29-.29l0-.36a2,2,0,0,0-.2-.49l-.22-.41c-.06-.09-.12-.21-.2-.35s-.15-.29-.2-.38l-.16-.32-.16.09a1.33,1.33,0,0,1,.12.31l0,0a1.5,1.5,0,0,1-.28.18l-.41.23-.74.4-.58.29-.24.1h-.07l0,0a1,1,0,0,1-.17-.25l-.17.1c.1.17.21.36.31.57s.24.46.35.69l.17-.09-.11-.23v-.06l0,0,.13-.1.45-.26c.22-.13.43-.24.63-.34l.75-.39.33-.16.11.18a1.5,1.5,0,0,1,.13.31l-.06.31-.25.25-.37.09-.31-.1a1,1,0,0,1-.25-.33H-464l-.07.19a5.53,5.53,0,0,1-.31.56l-.47.8-.09.11.18.31.23.45.16-.09,0-.14,0-.09A2.69,2.69,0,0,1-464.28,292.71Z" transform="translate(470.6 -252.8)"/><path class="cls-1" d="M-434.38,302.92a3.16,3.16,0,0,1,0,.42l0,0-.22.13-.42.15-.41.13-.09-.27-.3-.9.34-.12.39-.1.11,0a.7.7,0,0,1,.13.29l.18-.06-.16-.46-.15-.48-.17.05a1,1,0,0,1,.06.28v.05l-.14.06-.35.13-.31.09-.15-.44a4.74,4.74,0,0,1-.17-.62l.38-.14a3.34,3.34,0,0,1,.42-.11l.18,0,0,0a1.9,1.9,0,0,1,.12.3l.17-.06c0-.19-.08-.29-.08-.31l-.06-.32,0,0h-.08l-.32.09-.43.16-.65.22-.28.09-.49.15.06.18a1.31,1.31,0,0,1,.32-.06l0,0a1.06,1.06,0,0,1,.13.29l.15.41.31,1c0,.11.09.29.16.54s.06.23.08.3l-.17.19,0,.12.7-.24.7-.22.35-.1.38-.15,0,0c-.06-.18-.12-.42-.18-.7Z" transform="translate(470.6 -252.8)"/><path class="cls-1" d="M-462.39,295a2.73,2.73,0,0,1-.38.17h-.05L-463,295l-.27-.36c-.1-.13-.17-.25-.24-.35l.21-.17.77-.55.22.29.21.34v.11a.74.74,0,0,1-.24.21l.12.15.39-.29.41-.28-.11-.15-.25.14h-.06l-.09-.1-.22-.3-.18-.27.37-.27a6.13,6.13,0,0,1,.55-.35l.25.33a3.94,3.94,0,0,1,.23.37l.08.16,0,0a1.93,1.93,0,0,1-.25.21l.1.14.28-.17.28-.16,0,0,0-.07-.18-.27-.28-.37-.4-.55-.17-.24-.3-.43-.16.11a1.29,1.29,0,0,1,.16.29v0a1.28,1.28,0,0,1-.24.21l-.35.25-.82.59-.46.31-.26.16-.24-.1-.09.07.44.6.42.6.21.3a3.58,3.58,0,0,0,.25.33h0a5.81,5.81,0,0,1,.62-.39Z" transform="translate(470.6 -252.8)"/><path class="cls-1" d="M-437.21,303.23l-.14-.2-.21-.11-.31-.05h-.67l-.27,0-.16-.12-.09-.23a.48.48,0,0,1,.09-.38.65.65,0,0,1,.44-.24,1,1,0,0,1,.39,0l.27.13a2.3,2.3,0,0,1,.1.36l.18,0c0-.15,0-.27,0-.36v-.29l0,0a1.33,1.33,0,0,0-.4,0,2.43,2.43,0,0,0-.46,0,2.58,2.58,0,0,0-.43.13,1.21,1.21,0,0,0-.35.24.85.85,0,0,0-.21.38,1,1,0,0,0,0,.47l.13.31.23.23a.67.67,0,0,0,.33.11l.54,0a1.55,1.55,0,0,1,.41,0l.19.13.1.23,0,.31-.19.25a.91.91,0,0,1-.36.15.93.93,0,0,1-.46,0,.68.68,0,0,1-.33-.18,2.4,2.4,0,0,1-.1-.39l-.18,0a3.79,3.79,0,0,1,.07.78,2.84,2.84,0,0,0,.5.08,2.35,2.35,0,0,0,.49,0,1.8,1.8,0,0,0,.61-.23l.28-.27.19-.33a1.08,1.08,0,0,0,0-.52Z" transform="translate(470.6 -252.8)"/><path class="cls-1" d="M-442.34,303.72l-.17-.15-.3-.12-.3-.05-.36-.08-.26-.11-.13-.14,0-.24a.47.47,0,0,1,.17-.36.69.69,0,0,1,.47-.14.89.89,0,0,1,.38.08l.24.18a2.76,2.76,0,0,1,0,.37h.19c0-.15,0-.28,0-.37l.05-.28,0-.06a1.45,1.45,0,0,0-.38-.13,2.84,2.84,0,0,0-.46,0,1.8,1.8,0,0,0-.45,0,1.29,1.29,0,0,0-.39.16.86.86,0,0,0-.28.33,1,1,0,0,0-.11.46l0,.34.18.26a.66.66,0,0,0,.31.18l.53.13a1.35,1.35,0,0,1,.39.12l.16.16,0,.25-.08.3-.24.21a.91.91,0,0,1-.38.07.94.94,0,0,1-.45-.12.67.67,0,0,1-.29-.24,3,3,0,0,1,0-.4h-.19a3.28,3.28,0,0,1-.08.77,2,2,0,0,0,.47.18,2.05,2.05,0,0,0,.49.06,1.64,1.64,0,0,0,.64-.1l.34-.2.25-.29a1,1,0,0,0,.12-.51l0-.29Z" transform="translate(470.6 -252.8)"/><path class="cls-1" d="M-445.29,305l0,0,0-.07-.05-.21-.09-.33-.6-2.47-.31-.06-.28.47-.82,1.33-.31.51-.2.31-.06.06-.07,0-.22,0,0,.19.51.07.51.1,0-.18a1.16,1.16,0,0,1-.31-.09l0-.09a1.64,1.64,0,0,1,.17-.36l.14-.25,1.14.18.11.52,0,.19,0,.06a1.51,1.51,0,0,1-.3,0l0,.19.78.12.61.11,0-.18-.1,0Zm-1.47-1.25-.47-.08.64-1.07.28,1.22Z" transform="translate(470.6 -252.8)"/><path class="cls-1" d="M-460.27,297.86l.14-.31,1.05-2.31-.21-.23-.51.19-1.46.54-.56.2-.35.12h-.08l-.06,0-.16-.14-.14.13.36.37.33.39.14-.13a.92.92,0,0,1-.18-.26l0-.08a1.59,1.59,0,0,1,.36-.18l.27-.11.77.85-.23.47-.1.16-.07,0a2,2,0,0,1-.23-.2l-.14.12.54.57.41.46.14-.12-.06-.08-.08-.11v-.12Zm-.16-1.23c-.09-.09-.21-.2-.32-.34l-.32-.35,1.16-.44Z" transform="translate(470.6 -252.8)"/><path class="cls-1" d="M-465.78,289.91a1.73,1.73,0,0,1-.33-.34,1.67,1.67,0,0,1-.21-.38,1.55,1.55,0,0,1-.13-.59,1.44,1.44,0,0,1,.11-.43,1.27,1.27,0,0,1,.3-.42,1.87,1.87,0,0,1,.55-.34,1.29,1.29,0,0,1,1-.05,1.11,1.11,0,0,1,.63.66,1.19,1.19,0,0,1,.1.47,1,1,0,0,1-.09.4,2.9,2.9,0,0,1-.36.17l.06.16.45-.13.27,0,0,0a3.14,3.14,0,0,0-.06-.57,3,3,0,0,0-.16-.52,1.94,1.94,0,0,0-.92-1.1,1.52,1.52,0,0,0-1.25,0,1.73,1.73,0,0,0-.65.44,1.48,1.48,0,0,0-.29.44,1.5,1.5,0,0,0-.12.57,2.36,2.36,0,0,0,.17.84,2.36,2.36,0,0,0,.26.49,2.17,2.17,0,0,0,.38.39h.25Z" transform="translate(470.6 -252.8)"/><circle class="cls-1" cx="4.41" cy="31.25" r="1.08"/><path class="cls-1" d="M-466.22,272.46l.07-.09.06,0a1.35,1.35,0,0,1,.34.08l.63.22,2.15.76.63.25a2.2,2.2,0,0,1,.37.16l.11.14v.17l-.1.16-.23.16v.08l.5.19.11-.21a.8.8,0,0,0,0-.35,1.74,1.74,0,0,0-.08-.43,2.08,2.08,0,0,0-.19-.42,1.55,1.55,0,0,0-.4-.44,2.91,2.91,0,0,0-.67-.33l-1.18-.4-1-.35c-.27-.1-.47-.17-.62-.24l-.12-.09v-.12s0-.15.1-.34l-.24-.09c-.06.22-.15.48-.25.78s-.26.72-.4,1.06l.24.09Z" transform="translate(470.6 -252.8)"/><path class="cls-1" d="M-464.64,270.33a2.41,2.41,0,0,0,.69.63,2.19,2.19,0,0,0,1.11.4,1.74,1.74,0,0,0,1-.24,2.4,2.4,0,0,0,.8-.82,2.61,2.61,0,0,0,.42-1,2,2,0,0,0,0-.74,1.75,1.75,0,0,0-.3-.67,2.73,2.73,0,0,0-.75-.71,2.47,2.47,0,0,0-.53-.26,1.59,1.59,0,0,0-.51-.1,1.58,1.58,0,0,0-.57.07,1.82,1.82,0,0,0-.58.3,3,3,0,0,0-.64.72,3,3,0,0,0-.4.91,1.84,1.84,0,0,0,0,.76A1.86,1.86,0,0,0-464.64,270.33Zm.35-2.18a1.17,1.17,0,0,1,.43-.43,1.19,1.19,0,0,1,.51-.14,1.93,1.93,0,0,1,.62.1,3.21,3.21,0,0,1,.67.33,3,3,0,0,1,.76.69,1.2,1.2,0,0,1,.25.7,1.25,1.25,0,0,1-.21.65,1.3,1.3,0,0,1-.52.47,1.29,1.29,0,0,1-.79.06,2.94,2.94,0,0,1-1-.44,2.71,2.71,0,0,1-.65-.59,1.12,1.12,0,0,1-.26-.68A1.26,1.26,0,0,1-464.29,268.15Z" transform="translate(470.6 -252.8)"/><path class="cls-1" d="M-457.61,262.69a2.3,2.3,0,0,0,.7.72,1.76,1.76,0,0,0,.6.25,2,2,0,0,0,.73,0,2.78,2.78,0,0,0,1.09-.44,3.72,3.72,0,0,0,.64-.49,6.29,6.29,0,0,0,.65-.74l-.26-.36-.24-.42-.06-.15.14-.2-.1-.16-.73.48-.74.45.12.19a3.67,3.67,0,0,1,.5-.24h.09a1.16,1.16,0,0,1,.19.27l.14.23.15.26-.25.3-.3.24a1.49,1.49,0,0,1-1.22.17,2,2,0,0,1-1.11-.91,1.7,1.7,0,0,1-.29-1.28,1.54,1.54,0,0,1,.75-1,1.89,1.89,0,0,1,.51-.23,1.54,1.54,0,0,1,.47-.07l.21,0,.14.17.16.23.2-.12a6.25,6.25,0,0,1-.37-.83l0,0a3.18,3.18,0,0,0-.67.18,4.46,4.46,0,0,0-.82.41,3.5,3.5,0,0,0-.59.45,2.23,2.23,0,0,0-.42.53,2.17,2.17,0,0,0-.25.64,1.76,1.76,0,0,0,0,.7A2.15,2.15,0,0,0-457.61,262.69Z" transform="translate(470.6 -252.8)"/><path class="cls-1" d="M-461.42,279.31s.47,1.34.79,2.41l-.64-2.65A.35.35,0,0,0-461.42,279.31Z" transform="translate(470.6 -252.8)"/><path class="cls-1" d="M-460.34,282.88l-.28-1.16Z" transform="translate(470.6 -252.8)"/><path class="cls-1" d="M-424.54,279.31a.36.36,0,0,0-.14-.24l-.64,2.65C-425,280.65-424.54,279.31-424.54,279.31Z" transform="translate(470.6 -252.8)"/><path class="cls-1" d="M-426.12,279.14a6.75,6.75,0,0,0-.55,3.26c-1.59-1.43-4.09-.27-4.09-.27.08.27.92.9.92.9,0,3,1.83,3.62,1.83,3.62a2.19,2.19,0,0,0-.79,1c-.92-1.15-2.94-.91-2.94-.91,0,2.1,2.22,3.13,2.22,3.13a3.16,3.16,0,0,0-.08,1.36,5.93,5.93,0,0,0-1.58,1.39c.24-2.23-.56-3-.56-3a5,5,0,0,0-1.9,2.3,5.37,5.37,0,0,0-3.5,1.87l.16-.72c-4.21.91-4.17,3.89-4.17,3.89l-.2-.08a1.5,1.5,0,0,0-1.61-1.31,1.5,1.5,0,0,0-1.61,1.31l-.2.08s0-3-4.17-3.89l.16.72a5.36,5.36,0,0,0-3.49-1.87,5,5,0,0,0-1.91-2.3s-.79.75-.55,3a6,6,0,0,0-1.59-1.39,3.22,3.22,0,0,0-.08-1.36s2.22-1,2.22-3.13c0,0-2-.24-2.94.91a2.23,2.23,0,0,0-.8-1s1.79-.61,1.83-3.62c0,0,.83-.63.91-.9,0,0-2.5-1.16-4.09.27,0,0,.43-3.89-2.54-5.24a6.26,6.26,0,0,0,.12,4.72,6,6,0,0,0-1.31-.52,3.84,3.84,0,0,0,.75,2.86,2.81,2.81,0,0,0-1.74.36,5.58,5.58,0,0,0,3.09,2.7,7,7,0,0,0,.32.68,5.54,5.54,0,0,0-2.82.36,10.27,10.27,0,0,0,1.59,1.47,6.44,6.44,0,0,0,1.63.75l-.44.15s2,2.66,3.77,3a4.11,4.11,0,0,0-1.74,1,6.38,6.38,0,0,0,5.24,1.47,6.12,6.12,0,0,0-1,1.35,7.22,7.22,0,0,0,4-.17l-.2.48a4.64,4.64,0,0,0,3.22-1l.79.56a26.75,26.75,0,0,0-3.81.95l1.59,1.15a5.71,5.71,0,0,1,1.23-.67,27,27,0,0,0,4.55.55,26.9,26.9,0,0,0,4.55-.55,5.54,5.54,0,0,1,1.23.67l1.58-1.15a26.65,26.65,0,0,0-3.81-.95l.79-.56a4.64,4.64,0,0,0,3.21,1l-.2-.48a7.24,7.24,0,0,0,4,.17,6.1,6.1,0,0,0-1-1.35,6.39,6.39,0,0,0,5.24-1.47,4.14,4.14,0,0,0-1.75-1c1.79-.32,3.78-3,3.78-3l-.44-.15a6.46,6.46,0,0,0,1.63-.75,10.26,10.26,0,0,0,1.59-1.47,5.53,5.53,0,0,0-2.82-.36,7.17,7.17,0,0,0,.32-.68,5.6,5.6,0,0,0,3.1-2.7,2.82,2.82,0,0,0-1.75-.36,3.84,3.84,0,0,0,.75-2.86,6.08,6.08,0,0,0-1.31.52,6.27,6.27,0,0,0,.12-4.72,3.91,3.91,0,0,0-1.57,1.27Zm3.53,5.65-.17.22s-.14-.27-.34-.22a23.34,23.34,0,0,0-3.53,1.51S-425.64,284.16-422.59,284.79Zm-4.14,2.46a3.12,3.12,0,0,0,1.13.1l-.36.69-.76.52A6.19,6.19,0,0,0-426.74,287.24Zm-.24-3.07.77,0a9.81,9.81,0,0,0-.3,1.13l-.48.56A7.61,7.61,0,0,0-427,284.17Zm2.6.1h-.2a6.26,6.26,0,0,0,1.07-1.61A2.58,2.58,0,0,1-424.38,284.27Zm.6-2.07a12.23,12.23,0,0,1-1.51,2.31l-.64.35A3.82,3.82,0,0,1-423.78,282.2Zm-.61-4.35s.91,3.19-1.22,5a7.44,7.44,0,0,1,.28-1.16l.64-2.65c-.14-.07-.29.12-.29.12a26,26,0,0,0-1.11,3.59A4.62,4.62,0,0,1-424.39,277.85Zm-2.15,5.59a10.7,10.7,0,0,0-2.74-1.25C-427,281.89-426.54,283.44-426.54,283.44Zm-.6.18a4.6,4.6,0,0,1-2.46-1A9.56,9.56,0,0,1-427.14,283.62Zm-.09,3.59a4.89,4.89,0,0,1-.56,3.37l-.54.08a8.63,8.63,0,0,0,.68-1.75A7.23,7.23,0,0,1-427.23,287.21Zm-.92-3.31.64.16a5.8,5.8,0,0,1,.08,1.89A8.33,8.33,0,0,1-428.15,283.89Zm-1.19-.56.66.4a11.53,11.53,0,0,0,.81,2.43A3.16,3.16,0,0,1-429.34,283.34Zm1.65,3.77a5.85,5.85,0,0,0-.35,1.33,7.3,7.3,0,0,1-.94,2.48l-.2.06C-429,287.53-427.69,287.11-427.69,287.11Zm-1.43.95-.1.3a15.77,15.77,0,0,0-1.39-1.11A1.82,1.82,0,0,1-429.12,288.05Zm-2-.58a9.44,9.44,0,0,1,1.71,1.36l-.08.48A3.12,3.12,0,0,1-431.12,287.47Zm-.77,2.86a1.21,1.21,0,0,1,.09.37s-.33-.1-.38.2c0,0-1,3.13-1.76,3.47A6.09,6.09,0,0,1-431.89,290.33ZM-434,295s.92-.06,2.26-4a3.66,3.66,0,0,1-2.26,4.13Zm-.18-2.5c-1.65,3.37-3.25,3.51-3.25,3.51a32.72,32.72,0,0,1,2.86-3c.18-.3-.06-.43-.06-.43A2.06,2.06,0,0,1-434.14,292.49Zm-.6,2.68-.51-.06c.18-.2.83-1.17.83-1.17l0,.83A.37.37,0,0,0-434.74,295.16Zm-.27-2.36s-2.34,2.26-2.42,2.5A4.31,4.31,0,0,1-435,292.81Zm-13.51,2.5c-.08-.24-2.42-2.5-2.42-2.5A4.31,4.31,0,0,1-448.52,295.31Zm-2.84-2.7s-.24.14-.06.43a32.32,32.32,0,0,1,2.86,3s-1.61-.14-3.25-3.51A2,2,0,0,1-451.36,292.61Zm-.15,2.16,0-.83s.65,1,.84,1.17l-.52.06A.37.37,0,0,0-451.52,294.77Zm-2.54-4.44a6.07,6.07,0,0,1,2,4c-.77-.34-1.76-3.47-1.76-3.47,0-.3-.38-.2-.38-.2A1.22,1.22,0,0,1-454.06,290.33Zm-.2.69c1.35,3.91,2.27,4,2.27,4v.15A3.67,3.67,0,0,1-454.26,291Zm-2.2-1.7-.08-.48a9.46,9.46,0,0,1,1.7-1.36A3.12,3.12,0,0,1-456.46,289.31Zm1.11-2.07a15.88,15.88,0,0,0-1.39,1.11l-.1-.3A1.81,1.81,0,0,1-455.35,287.24Zm-1.43,3.73-.2-.06a7.38,7.38,0,0,1-.93-2.48,5.88,5.88,0,0,0-.36-1.33S-456.91,287.53-456.78,291Zm-1.52-2.06a8.48,8.48,0,0,0,.67,1.75l-.53-.08a4.89,4.89,0,0,1-.56-3.37A7.42,7.42,0,0,1-458.3,288.92Zm-.14-4.86.63-.16a8.57,8.57,0,0,1-.71,2A5.79,5.79,0,0,1-458.44,284.05Zm.36,2.11a11.51,11.51,0,0,0,.81-2.43l.66-.4A3.16,3.16,0,0,1-458.08,286.17Zm-.74-2.55a9.59,9.59,0,0,1,2.46-1A4.6,4.6,0,0,1-458.82,283.62Zm2.14-1.43a10.73,10.73,0,0,0-2.74,1.25S-459,281.89-456.68,282.19Zm-2.3,3.69-.48-.56a9.51,9.51,0,0,0-.3-1.13l.78,0A7.62,7.62,0,0,0-459,285.88Zm-.26,2.68L-460,288l-.35-.69a3.06,3.06,0,0,0,1.12-.1A6.11,6.11,0,0,0-459.23,288.56Zm-2.33-10.71a4.62,4.62,0,0,1,1.7,4.93,26.37,26.37,0,0,0-1.11-3.59s-.16-.2-.29-.12l.64,2.65a9.16,9.16,0,0,1,.28,1.16C-462.48,281-461.57,277.85-461.57,277.85Zm1.54,7-.64-.35a12.13,12.13,0,0,1-1.51-2.31A3.81,3.81,0,0,1-460,284.87Zm-2.42-2.21a6.33,6.33,0,0,0,1.07,1.61h-.2A2.54,2.54,0,0,1-462.45,282.66Zm-.74,2.34-.18-.22c3.06-.63,4,1.51,4,1.51a23.21,23.21,0,0,0-3.53-1.51C-463,284.73-463.18,285-463.18,285Zm.21.26a18,18,0,0,1,3.59,1.56C-461.54,287.31-463,285.26-463,285.26Zm.4,3.3c3.35-.86,3.67,1.53,3.67,1.53a6.5,6.5,0,0,0-3.09-1.61c-.46,0-.18.37-.18.37a5.81,5.81,0,0,1,2.74,1.43A6.81,6.81,0,0,1-462.57,288.56Zm3.16,2.81a1.38,1.38,0,0,1-.4-.4c3.67-.28,4.8,2.12,4.8,2.12a15.16,15.16,0,0,0-4.07-2C-459.43,291-459.42,291.37-459.42,291.37Zm.14.14a15,15,0,0,1,4,1.94A5.18,5.18,0,0,1-459.27,291.52Zm1.49,3.07c1.61-1.25,3.85-.31,3.85-.31a5.9,5.9,0,0,0,.79.77c-1.19-.36-3.47-.73-3.47-.73-.42.11-.08.41-.08.41,1.8.34,3.65.86,3.65.86A5.32,5.32,0,0,1-457.79,294.59Zm4.5,2.56h-.27a3,3,0,0,1,3.63-1.27s-2.9.87-3.22,1A.22.22,0,0,0-453.29,297.15Zm.8,0s2.62-.87,3.16-.95l.22.12A5.9,5.9,0,0,1-452.49,297.15Zm2.87.12,1-.73.52.1A3.29,3.29,0,0,1-449.62,297.27Zm1.27-3.58c3.18,1.08,3.14,3.35,3.14,3.35a20.39,20.39,0,0,1-2.46-2.73c-.53-.24-.33.32-.33.32.77,1,1.91,2.31,1.91,2.31C-447.95,296.58-448.34,293.69-448.34,293.69Zm5.38,4.95h0a15.79,15.79,0,0,1-3.31-.32,11.94,11.94,0,0,1,3.32-.6,11.94,11.94,0,0,1,3.32.6A15.77,15.77,0,0,1-443,298.64Zm3.11-1.7s1.13-1.35,1.91-2.31c0,0,.2-.56-.34-.32a20.24,20.24,0,0,1-2.46,2.73s0-2.28,3.14-3.35C-437.61,293.69-438,296.58-439.86,296.94Zm2-.3.52-.1,1,.73A3.29,3.29,0,0,1-437.83,296.64Zm1-.32.22-.12c.53.08,3.15.95,3.15.95A5.9,5.9,0,0,1-436.84,296.32Zm4.45.82h-.28a.22.22,0,0,0-.14-.26c-.32-.16-3.22-1-3.22-1A3,3,0,0,1-432.39,297.13Zm4.22-2.54a5.32,5.32,0,0,1-4.74,1s1.85-.52,3.65-.86c0,0,.34-.3-.08-.41,0,0-2.29.37-3.47.73a5.9,5.9,0,0,0,.79-.77S-429.77,293.34-428.17,294.59Zm-2.48-1.13a14.94,14.94,0,0,1,4-1.94A5.19,5.19,0,0,1-430.65,293.46Zm4.11-2.08s0-.4-.34-.26a15.09,15.09,0,0,0-4.07,2s1.13-2.4,4.8-2.12A1.42,1.42,0,0,1-426.54,291.37Zm3.15-2.81a6.79,6.79,0,0,1-3.13,1.72,5.82,5.82,0,0,1,2.74-1.43s.28-.37-.18-.37a6.5,6.5,0,0,0-3.09,1.61S-426.74,287.71-423.38,288.56Zm-3.2-1.74a18,18,0,0,1,3.59-1.56A3.76,3.76,0,0,1-426.58,286.83Z" transform="translate(470.6 -252.8)"/><path class="cls-1" d="M-425.32,281.72l-.28,1.16Z" transform="translate(470.6 -252.8)"/><path class="cls-1" d="M-441.84,283.49a1.77,1.77,0,0,1-2.31,0v4.76a2.33,2.33,0,0,0,2.31,0Z" transform="translate(470.6 -252.8)"/><path class="cls-1" d="M-454.9,282a6,6,0,0,0,6.13,6.42s5.11.21,4.06-4.32h-2.17s1.49,2.34-1.16,2.72c0,0-3.09.53-2.89-4.39,0,0,.34-5.69,4.68-9.06a3.75,3.75,0,0,1-.68-3.62,4.27,4.27,0,0,1,3.09-2.78l-.22,7.78,1,.63v0h0v0l1-.63-.21-7.77a4.27,4.27,0,0,1,3.07,2.77,3.76,3.76,0,0,1-.68,3.62c4.34,3.38,4.68,9.06,4.68,9.06.19,4.92-2.89,4.39-2.89,4.39-2.65-.38-1.16-2.72-1.16-2.72h-2.17c-1.06,4.53,4.05,4.32,4.05,4.32a6,6,0,0,0,6.13-6.42c.38-5.64-6.37-8.73-6.37-8.73,1.73-5.71-2.77-7.12-4.68-7.46l0-1.41-.74-.78h0l-.75.78,0,1.4c-1.9.33-6.44,1.74-4.71,7.47C-448.54,273.22-455.29,276.31-454.9,282Z" transform="translate(470.6 -252.8)"/><path class="cls-1" d="M-435.86,282.73l-2-6.71a4.5,4.5,0,0,0-5.2.53,4.5,4.5,0,0,0-5.2-.53l-2,6.71a6.54,6.54,0,0,1,6.56.38h0a1.16,1.16,0,0,0,.62.15,1.15,1.15,0,0,0,.61-.15h0A6.54,6.54,0,0,1-435.86,282.73Zm-7.18,0a8.06,8.06,0,0,0-6.31-1l1.44-5.49s2-1.25,4.87.43h0c2.89-1.68,4.86-.43,4.86-.43l1.45,5.49A8.06,8.06,0,0,0-443,282.77Z" transform="translate(470.6 -252.8)"/><path class="cls-1" d="M-446.24,280.57l-.08,0,0,0,0-.06-.08-.23-.11-.33-.86-2.52-.21,0-.08.57-.26,1.61c0,.31-.08.51-.1.62s-.06.35-.07.38l0,.08,0,0-.14,0,0,.21.33,0h.34l0-.2-.21,0,0-.08a2.22,2.22,0,0,1,0-.43l0-.3.75-.06.17.54,0,.2,0,.07-.19.05,0,.2.51-.05.4,0v-.2Zm-1.25-1-.31,0,.2-1.29.41,1.25Z" transform="translate(470.6 -252.8)"/><path class="cls-1" d="M-445.19,279.18v.19a1,1,0,0,1,.28,0l0,0a1.25,1.25,0,0,1,0,.28V280c0,.14,0,.22,0,.26l-.18.1-.19,0a.66.66,0,0,1-.57-.43,2.46,2.46,0,0,1-.23-1.16,2.13,2.13,0,0,1,.22-1.05.66.66,0,0,1,.58-.38l.28.06.22.17.08.12,0,.19v.23h.12a7.76,7.76,0,0,1,.06-.78v0a1.91,1.91,0,0,0-.34-.17,1.43,1.43,0,0,0-.46-.07,1.24,1.24,0,0,0-.37.06l-.32.2a1.38,1.38,0,0,0-.28.35,1.88,1.88,0,0,0-.18.5,2.87,2.87,0,0,0-.07.68,3.09,3.09,0,0,0,.1.84,1.83,1.83,0,0,0,.19.45,1.35,1.35,0,0,0,.3.34,1,1,0,0,0,.58.19,1.29,1.29,0,0,0,.4-.07,2.87,2.87,0,0,0,.48-.24V280c0-.08,0-.22,0-.41v-.13l.11-.09v-.15h-.87Z" transform="translate(470.6 -252.8)"/><path class="cls-1" d="M-442.07,280.33l0,0,0-.07-.06-.23-.09-.34-.65-2.58h-.21l-.13.56-.38,1.59-.14.6c-.06.22-.09.35-.1.38l0,.08,0,0-.14,0v.2l.34,0,.34,0v-.2l-.21,0,0-.08a3,3,0,0,1,.07-.43l.06-.3h.75l.13.55,0,.2,0,.07-.2,0v.2l.51,0,.4,0v-.2l-.06,0Zm-1.08-1.1h-.31l.3-1.28.31,1.28Z" transform="translate(470.6 -252.8)"/><path class="cls-1" d="M-439.92,277.44l-.18-.25-.3-.09-.66,0-.43,0,0,.2.16,0,0,0,0,0v.11c0,.05,0,.18,0,.37l0,.47-.06.87c0,.32,0,.62-.06.88l0,.18,0,0-.21,0v.22h.39l.57,0v-.22l-.2,0,0,0,0,0s0-.13,0-.27,0-.49,0-.73l.06-.93,0-.49c0-.19,0-.34,0-.45l.18,0,.26.19a1,1,0,0,1,.07.52,1,1,0,0,1-.12.49l-.24.15h-.05l-.06,0,0,0,0,.18.09,0h.09l.36-.13a1,1,0,0,0,.26-.38,1.68,1.68,0,0,0,.11-.51A1.17,1.17,0,0,0-439.92,277.44Z" transform="translate(470.6 -252.8)"/><path class="cls-1" d="M-438.5,280.81l0,0c0-.21.08-.47.15-.79l-.12,0a3.51,3.51,0,0,1-.12.44l0,0-.17,0-.29,0-.27-.06,0-.3.15-1,.23,0,.25.06.05.08a1.75,1.75,0,0,1,0,.35l.12,0,.07-.54.08-.54-.12,0a2.76,2.76,0,0,1-.06.31l0,0h-.09l-.24,0-.2,0,.07-.5c0-.29.08-.52.13-.71l.26,0,.27.07.12.05v.05s0,.16,0,.35l.11,0c0-.21.06-.33.07-.35l.08-.35v0l0,0-.21,0-.29,0-.44-.06-.19,0-.33-.07,0,.21.2.08,0,0a2.48,2.48,0,0,1,0,.33c0,.28-.06.44-.07.48l-.16,1.1-.1.62c0,.15,0,.26-.06.33l-.16.12,0,.13.48.05.48.08.23,0Z" transform="translate(470.6 -252.8)"/></svg>